<?xml version="1.0" encoding="UTF-8" standalone="no"?>
<!DOCTYPE svg PUBLIC "-//W3C//DTD SVG 1.1//EN"
 "http://www.w3.org/Graphics/SVG/1.1/DTD/svg11.dtd">
<!-- Generated by graphviz version 13.1.2 (20250808.2320)
 -->
<!-- Title: AuthFlow Pages: 1 -->
<svg width="699pt" height="326pt"
 viewBox="0.00 0.00 699.00 326.00" xmlns="http://www.w3.org/2000/svg" xmlns:xlink="http://www.w3.org/1999/xlink">
<g id="graph0" class="graph" transform="scale(1 1) rotate(0) translate(4 321.5)">
<title>AuthFlow</title>
<polygon fill="#fafafa" stroke="none" points="-4,4 -4,-321.5 695,-321.5 695,4 -4,4"/>
<g id="clust1" class="cluster">
<title>cluster_login</title>
<path fill="#eef5ff" stroke="#2b6cb0" d="M20,-8C20,-8 345,-8 345,-8 351,-8 357,-14 357,-20 357,-20 357,-297.5 357,-297.5 357,-303.5 351,-309.5 345,-309.5 345,-309.5 20,-309.5 20,-309.5 14,-309.5 8,-303.5 8,-297.5 8,-297.5 8,-20 8,-20 8,-14 14,-8 20,-8"/>
<text xml:space="preserve" text-anchor="start" x="16" y="-292.25" font-family="Helvetica,sans-Serif" font-weight="bold" font-size="15.00">① Login  —  OAuth2 Password Flow</text>
</g>
<g id="clust2" class="cluster">
<title>cluster_request</title>
<path fill="#f0fdf4" stroke="#276749" d="M377,-8C377,-8 671,-8 671,-8 677,-8 683,-14 683,-20 683,-20 683,-297.5 683,-297.5 683,-303.5 677,-309.5 671,-309.5 671,-309.5 377,-309.5 377,-309.5 371,-309.5 365,-303.5 365,-297.5 365,-297.5 365,-20 365,-20 365,-14 371,-8 377,-8"/>
<text xml:space="preserve" text-anchor="start" x="373" y="-292.25" font-family="Helvetica,sans-Serif" font-weight="bold" font-size="15.00">② Jeder weitere Request</text>
</g>
<!-- client1 -->
<g id="node1" class="node">
<title>client1</title>
<path fill="#ffffff" stroke="#333333" stroke-width="1.2" d="M122.12,-265.5C122.12,-265.5 37.88,-265.5 37.88,-265.5 31.88,-265.5 25.88,-259.5 25.88,-253.5 25.88,-253.5 25.88,-241 25.88,-241 25.88,-235 31.88,-229 37.88,-229 37.88,-229 122.12,-229 122.12,-229 128.12,-229 134.12,-235 134.12,-241 134.12,-241 134.12,-253.5 134.12,-253.5 134.12,-259.5 128.12,-265.5 122.12,-265.5"/>
<text xml:space="preserve" text-anchor="middle" x="80" y="-250.1" font-family="Helvetica,sans-Serif" font-size="12.00">Client</text>
<text xml:space="preserve" text-anchor="middle" x="80" y="-235.85" font-family="Helvetica,sans-Serif" font-size="12.00">(Browser / App)</text>
</g>
<!-- authsrv -->
<g id="node2" class="node">
<title>authsrv</title>
<path fill="#dbeafe" stroke="#333333" stroke-width="1.2" d="M170.12,-165.5C170.12,-165.5 37.88,-165.5 37.88,-165.5 31.88,-165.5 25.88,-159.5 25.88,-153.5 25.88,-153.5 25.88,-137.5 25.88,-137.5 25.88,-131.5 31.88,-125.5 37.88,-125.5 37.88,-125.5 170.12,-125.5 170.12,-125.5 176.12,-125.5 182.12,-131.5 182.12,-137.5 182.12,-137.5 182.12,-153.5 182.12,-153.5 182.12,-159.5 176.12,-165.5 170.12,-165.5"/>
<text xml:space="preserve" text-anchor="start" x="33.88" y="-151.1" font-family="Helvetica,sans-Serif" font-weight="bold" font-size="12.00">Authorization Server</text>
<text xml:space="preserve" text-anchor="start" x="66.12" y="-141" font-family="Helvetica,sans-Serif" font-size="10.00">(prüft Passwort,</text>
<text xml:space="preserve" text-anchor="start" x="64.25" y="-131" font-family="Helvetica,sans-Serif" font-size="10.00">stellt Token aus)</text>
</g>
<!-- client1&#45;&gt;authsrv -->
<g id="edge1" class="edge">
<title>client1&#45;&gt;authsrv</title>
<path fill="none" stroke="#444444" d="M65.72,-228.57C58.62,-217.56 52.6,-203.13 58,-190.5 60.56,-184.51 64.38,-178.95 68.74,-173.93"/>
<polygon fill="#444444" stroke="#444444" points="70.92,-176.7 75.41,-167.11 65.92,-171.81 70.92,-176.7"/>
<text xml:space="preserve" text-anchor="middle" x="115" y="-193.55" font-family="Helvetica,sans-Serif" font-size="11.00"> &#160;E&#45;Mail + Passwort &#160;</text>
</g>
<!-- authsrv&#45;&gt;client1 -->
<g id="edge3" class="edge">
<title>authsrv&#45;&gt;client1</title>
<path fill="none" stroke="#2b6cb0" stroke-width="2" d="M156.24,-166.01C173.94,-175.76 186.99,-188.75 177,-204 169.6,-215.29 158.45,-223.59 146.32,-229.67"/>
<polygon fill="#2b6cb0" stroke="#2b6cb0" stroke-width="2" points="145.01,-226.42 137.25,-233.64 147.81,-232.83 145.01,-226.42"/>
<text xml:space="preserve" text-anchor="middle" x="241.21" y="-193.55" font-family="Helvetica,sans-Serif" font-size="11.00"> &#160;Access Token (JWT) &#160;</text>
</g>
<!-- users -->
<g id="node3" class="node">
<title>users</title>
<path fill="#fff7e6" stroke="#b7791f" stroke-width="1.2" d="M131,-58.73C131,-60.53 118.9,-62 104,-62 89.1,-62 77,-60.53 77,-58.73 77,-58.73 77,-29.27 77,-29.27 77,-27.47 89.1,-26 104,-26 118.9,-26 131,-27.47 131,-29.27 131,-29.27 131,-58.73 131,-58.73"/>
<path fill="none" stroke="#b7791f" stroke-width="1.2" d="M131,-58.73C131,-56.92 118.9,-55.45 104,-55.45 89.1,-55.45 77,-56.92 77,-58.73"/>
<text xml:space="preserve" text-anchor="middle" x="104" y="-39.73" font-family="Helvetica,sans-Serif" font-size="12.00">Users</text>
</g>
<!-- authsrv&#45;&gt;users -->
<g id="edge2" class="edge">
<title>authsrv&#45;&gt;users</title>
<path fill="none" stroke="#444444" d="M104,-125.32C104,-110.68 104,-90.29 104,-73.72"/>
<polygon fill="#444444" stroke="#444444" points="107.5,-73.97 104,-63.97 100.5,-73.97 107.5,-73.97"/>
<text xml:space="preserve" text-anchor="middle" x="159.12" y="-90.05" font-family="Helvetica,sans-Serif" font-size="11.00"> &#160;Hash vergleichen &#160;</text>
</g>
<!-- client2 -->
<g id="node4" class="node">
<title>client2</title>
<path fill="#ffffff" stroke="#333333" stroke-width="1.2" d="M479.12,-265.5C479.12,-265.5 394.88,-265.5 394.88,-265.5 388.88,-265.5 382.88,-259.5 382.88,-253.5 382.88,-253.5 382.88,-241 382.88,-241 382.88,-235 388.88,-229 394.88,-229 394.88,-229 479.12,-229 479.12,-229 485.12,-229 491.12,-235 491.12,-241 491.12,-241 491.12,-253.5 491.12,-253.5 491.12,-259.5 485.12,-265.5 479.12,-265.5"/>
<text xml:space="preserve" text-anchor="middle" x="437" y="-250.1" font-family="Helvetica,sans-Serif" font-size="12.00">Client</text>
<text xml:space="preserve" text-anchor="middle" x="437" y="-235.85" font-family="Helvetica,sans-Serif" font-size="12.00">(Browser / App)</text>
</g>
<!-- ressrv -->
<g id="node5" class="node">
<title>ressrv</title>
<path fill="#dcfce7" stroke="#333333" stroke-width="1.2" d="M516.5,-165.5C516.5,-165.5 395.5,-165.5 395.5,-165.5 389.5,-165.5 383.5,-159.5 383.5,-153.5 383.5,-153.5 383.5,-137.5 383.5,-137.5 383.5,-131.5 389.5,-125.5 395.5,-125.5 395.5,-125.5 516.5,-125.5 516.5,-125.5 522.5,-125.5 528.5,-131.5 528.5,-137.5 528.5,-137.5 528.5,-153.5 528.5,-153.5 528.5,-159.5 522.5,-165.5 516.5,-165.5"/>
<text xml:space="preserve" text-anchor="start" x="400.12" y="-151.1" font-family="Helvetica,sans-Serif" font-weight="bold" font-size="12.00">Resource Server</text>
<text xml:space="preserve" text-anchor="start" x="391.5" y="-141" font-family="Helvetica,sans-Serif" font-size="10.00">(prüft Signatur des Tokens,</text>
<text xml:space="preserve" text-anchor="start" x="423.38" y="-131" font-family="Helvetica,sans-Serif" font-size="10.00">liefert Daten)</text>
</g>
<!-- client2&#45;&gt;ressrv -->
<g id="edge4" class="edge">
<title>client2&#45;&gt;ressrv</title>
<path fill="none" stroke="#444444" d="M423.09,-228.41C416.31,-217.46 410.56,-203.16 415.5,-190.5 417.76,-184.7 421.19,-179.2 425.11,-174.18"/>
<polygon fill="#444444" stroke="#444444" points="427.59,-176.66 431.56,-166.83 422.33,-172.04 427.59,-176.66"/>
<text xml:space="preserve" text-anchor="middle" x="488.25" y="-193.55" font-family="Helvetica,sans-Serif" font-size="11.00"> &#160;Anfrage + Bearer Token &#160;</text>
</g>
<!-- ressrv&#45;&gt;client2 -->
<g id="edge7" class="edge">
<title>ressrv&#45;&gt;client2</title>
<path fill="none" stroke="#276749" stroke-width="2" d="M529,-160.21C557.95,-169.12 581.17,-183.06 566,-204 551.58,-223.9 527.51,-234.59 504.04,-240.28"/>
<polygon fill="#276749" stroke="#276749" stroke-width="2" points="503.54,-236.81 494.47,-242.28 504.97,-243.67 503.54,-236.81"/>
<text xml:space="preserve" text-anchor="middle" x="600.04" y="-193.55" font-family="Helvetica,sans-Serif" font-size="11.00"> &#160;Antwort &#160;</text>
</g>
<!-- ressrv&#45;&gt;ressrv -->
<g id="edge5" class="edge">
<title>ressrv&#45;&gt;ressrv</title>
<path fill="none" stroke="#444444" d="M529.02,-155.14C549.13,-154.68 564.5,-151.46 564.5,-145.5 564.5,-140.7 554.55,-137.68 540.18,-136.44"/>
<polygon fill="#444444" stroke="#444444" points="540.7,-132.97 530.53,-135.94 540.33,-139.96 540.7,-132.97"/>
<text xml:space="preserve" text-anchor="middle" x="615.12" y="-141.8" font-family="Helvetica,sans-Serif" font-size="11.00"> &#160;JWT verifizieren &#160;</text>
</g>
<!-- posts -->
<g id="node6" class="node">
<title>posts</title>
<path fill="#fff7e6" stroke="#b7791f" stroke-width="1.2" d="M483,-58.73C483,-60.53 470.9,-62 456,-62 441.1,-62 429,-60.53 429,-58.73 429,-58.73 429,-29.27 429,-29.27 429,-27.47 441.1,-26 456,-26 470.9,-26 483,-27.47 483,-29.27 483,-29.27 483,-58.73 483,-58.73"/>
<path fill="none" stroke="#b7791f" stroke-width="1.2" d="M483,-58.73C483,-56.92 470.9,-55.45 456,-55.45 441.1,-55.45 429,-56.92 429,-58.73"/>
<text xml:space="preserve" text-anchor="middle" x="456" y="-39.73" font-family="Helvetica,sans-Serif" font-size="12.00">Posts</text>
</g>
<!-- ressrv&#45;&gt;posts -->
<g id="edge6" class="edge">
<title>ressrv&#45;&gt;posts</title>
<path fill="none" stroke="#444444" d="M456,-125.32C456,-110.68 456,-90.29 456,-73.72"/>
<polygon fill="#444444" stroke="#444444" points="459.5,-73.97 456,-63.97 452.5,-73.97 459.5,-73.97"/>
<text xml:space="preserve" text-anchor="middle" x="528.75" y="-90.05" font-family="Helvetica,sans-Serif" font-size="11.00"> &#160;Daten lesen / schreiben &#160;</text>
</g>
</g>
</svg>
